<?xml version="1.0" standalone="no"?><!DOCTYPE svg PUBLIC "-//W3C//DTD SVG 1.1//EN" "http://www.w3.org/Graphics/SVG/1.1/DTD/svg11.dtd"><svg t="1600050173310" class="icon" viewBox="0 0 1293 1024" version="1.1" xmlns="http://www.w3.org/2000/svg" p-id="8847" width="40.40625" height="32" xmlns:xlink="http://www.w3.org/1999/xlink"><defs><style type="text/css"></style></defs><path d="M711.9766 250.603369c-120.980937 43.207477-157.698685 196.241132-270.038127 326.225061-166.030326 192.126954-367.263558 339.118448-367.263558 339.118448s363.596947-48.767643 624.37387-168.457519c184.965874-84.900111 296.083112-220.340921 287.338331-332.697576-7.711932-98.068924-159.816024-205.089197-274.410516-164.188414z" fill="#FF2424" p-id="8848"></path><path d="M677.875399 756.922705c7.109438-3.098544 14.201661-6.231517 21.173386-9.433346 184.965874-84.900111 296.083112-220.340921 287.338331-332.697576-3.322328-42.226272-33.498706-86.070672-75.845476-119.070168 15.81979 63.382443 24.994923 135.389167 2.392765 179.560636-34.824194 68.081902-151.966379 199.873315-235.059006 281.640454z" fill="#AA2222" p-id="8849"></path><path d="M938.858891 316.860572c-21.965236-29.522241-17.214134-47.614296-8.813637-66.567058 11.516256-26.14827 42.450055-76.310258 54.895875-114.181353s-23.944861-97.655785-30.073093-101.563393-21.207814 57.770635-26.096628 80.64822c-6.059375 28.386108-44.756749 78.393168-75.242981 119.173452-10.483408 14.02952-13.891806 10.948189-38.88673 7.557005-61.540531-20.226608-82.627845 1.325488-95.125307 5.835592-16.749353 5.990519 34.428269 74.588844 97.638571 110.824597 54.017954 30.985442 158.611035 61.695458 168.113237 46.650304 7.195508-11.395757-11.292472-41.158995-46.409307-88.377366z" fill="#A2CE28" p-id="8850"></path><path d="M984.872272 136.215446c9.071849-27.542615-7.763575-66.721985-19.951181-87.482231 3.167401 14.890226 5.921662 33.033924 4.096964 45.720741-3.597754 25.201493-74.158491 159.144673-65.516996 181.471405s45.359244 59.767475 46.805232 91.441482a89.616784 89.616784 0 0 1-6.730727 38.318663c21.844737 4.527317 38.129308 5.16424 41.606563-0.309855 7.212722-11.430185-11.275258-41.193424-46.478163-88.411794-21.965236-29.522241-17.214134-47.614296-8.813637-66.584272 11.585112-26.131056 42.518912-76.293044 54.981945-114.164139z" fill="#7B9324" p-id="8851"></path><path d="M922.333322 250.68944c-112.976364 61.179034-125.886965 217.999798-217.053021 363.631375-134.73503 215.17668-311.14548 391.294489-311.145479 391.294489s351.874122-103.801231 591.288303-261.895841c169.817436-112.1673 259.003866-263.066402 233.131022-372.617153-22.602158-95.813872-189.269408-178.355647-296.220825-120.41287z" fill="#FF2424" p-id="8852"></path><path d="M965.91951 756.268567c6.558585-4.148606 13.082742-8.331641 19.503615-12.549104 169.817436-112.1673 259.003866-263.066402 233.131022-372.617153-9.7432-41.227852-46.254379-79.94244-93.145681-106.107925 25.321992 60.24947 45.376458 130.001143 29.797667 177.099015-24.030932 72.523148-119.603806 220.667989-189.286623 314.175167z" fill="#AA2222" p-id="8853"></path><path d="M1156.617692 281.588811c-26.217127-25.821202-24.237501-44.429681-18.935548-64.449719 7.384864-27.542615 30.296877-81.887637 36.821033-121.221935S1135.926302 3.064116 1129.281646 0.172141s-12.135965 60.352755-13.478667 83.695122c-1.721413 28.988602-32.276502 84.349259-56.169721 129.278149-8.211142 15.492721-12.049894 12.945029-37.268601 13.409811-63.898867-10.603907-81.405642 13.926235-93.111253 20.27825-15.647648 8.486568 45.393672 68.460613 113.423932 94.67774 58.097704 22.378375 166.185254 36.734963 173.260263 20.415963 5.422452-12.53189-17.386276-39.127728-59.319907-80.338365z" fill="#A2CE28" p-id="8854"></path><path d="M1174.503177 95.951585c4.751101-28.64432-17.868272-64.759574-33.085566-83.419695 5.405238 14.253303 10.896547 31.760078 11.051474 44.567394 0.275426 25.442491-49.008641 168.595232-37.044817 189.355478s53.966311 52.141613 60.24947 83.23034a89.513499 89.513499 0 0 1-0.79185 38.88673c22.27509 1.153347 38.490805-0.671351 41.090139-6.66187 5.37081-12.394177-17.455132-38.9728-59.37155-80.269509-26.217127-25.821202-24.254715-44.429681-18.935547-64.449719 7.402078-27.611472 30.314091-81.922066 36.838247-121.239149z" fill="#7B9324" p-id="8855"></path><path d="M908.889083 1021.796591c-33.481491-1.08449-124.217194-51.125979-117.744679-118.777528s13.32374-95.05645 28.454964-144.736442c11.481828-37.716169 15.837004-95.779444 15.837004-95.779444s27.542615 30.417376 34.032343 61.7471c6.885654 33.739703 9.175134 52.399825 9.175134 52.399826a639.332952 639.332952 0 0 0 56.703359-117.211042c18.367481-51.642403 5.938876-140.243553 5.938876-140.243553s90.029923 50.4202 121.70393 109.464681c35.633258 66.412131 31.691221 117.383183 31.691222 117.383183s16.69771-17.954342 18.728978-60.490469c1.428773-30.245234-5.250311-78.599738-5.250311-78.599738s91.785765 148.506338 72.299365 273.704738c-16.1985 103.697946-81.371213 135.750664-104.455368 138.349998-43.8444 4.992099-123.029419 4.269105-167.114817 2.78869z" fill="#FFC31A" p-id="8856"></path><path d="M935.760347 1023.29422c-22.378375-0.722994-83.23034-34.256127-78.875164-79.615371s8.916922-63.692297 19.056047-96.967219c7.677504-25.270349 10.603907-64.157079 10.603907-64.157079s18.453552 20.381535 22.808728 41.313922c4.66503 22.602158 6.145446 35.09962 6.145446 35.09962a428.890159 428.890159 0 0 0 37.991594-78.513667c12.290892-34.60041 3.976465-93.954746 3.976465-93.954745s60.24947 33.756918 81.526141 73.314998c23.876004 44.498537 21.242242 78.65138 21.242242 78.65138s11.171973-12.049894 12.53189-40.522072c0.963992-20.27825-3.442827-52.658037-3.442827-52.658037s61.488888 99.497697 48.388932 183.399388c-10.879333 69.510675-54.568806 90.9767-70.061527 92.732542-29.264029 3.305114-82.335205 2.823118-111.891874 1.87634z" fill="#FF7E1D" p-id="8857"></path><path d="M955.642672 1023.018794c-13.771308-0.447567-51.246478-21.087315-48.561073-49.00864s5.491309-39.213798 11.722826-59.715833c4.733887-15.492721 6.541371-39.506438 6.541371-39.506438s11.361329 12.549104 14.029519 25.476919c2.87476 13.909021 3.78711 21.603739 3.78711 21.603738a263.376257 263.376257 0 0 0 23.394008-48.337289c7.574219-21.293884 2.444407-57.856706 2.444408-57.856706s37.130888 20.794674 50.21363 45.152675c14.700871 27.404902 13.065528 48.42336 13.065528 48.42336s6.885654-7.402078 7.729146-24.960495c0.585281-12.463033-2.168981-32.414215-2.168981-32.414215s37.871096 61.265104 29.780453 112.924722c-6.679084 42.777124-33.567562 55.980365-43.035336 57.064855-18.109269 2.031268-50.781697 1.738628-68.942609 1.153347z" fill="#FF3F1F" p-id="8858"></path><path d="M1293.074135 484.715597a80.665434 80.665434 0 1 1-161.313654 0c0-44.532966 80.665434-141.155902 80.665434-141.155902s80.64822 96.55408 80.64822 141.155902z" fill="#45BDFF" p-id="8859"></path><path d="M1183.196315 555.8444a92.422688 92.422688 0 0 0 92.422688-92.422687c0-20.880745-15.492721-51.745688-33.825774-80.906432 22.929227 31.932219 50.609555 75.845476 50.609555 101.959318a80.080153 80.080153 0 0 1-119.259523 70.40581 92.026763 92.026763 0 0 0 10.053054 0.963991z" fill="#3395C1" p-id="8860"></path><path d="M1097.1945 517.422452a37.440742 37.440742 0 0 1-74.881485 0c0-20.656961 37.440742-65.53421 37.440742-65.534209s37.440742 44.877248 37.440743 65.534209z" fill="#45BDFF" p-id="8861"></path><path d="M1046.189019 550.47359a42.914837 42.914837 0 0 0 42.914837-42.914837c0-9.691558-7.212722-24.099788-15.716504-37.578455 10.655549 14.82137 23.497293 35.220119 23.497293 47.33887a37.18253 37.18253 0 0 1-55.360656 32.706855 41.55492 41.55492 0 0 0 4.66503 0.447567z" fill="#3395C1" p-id="8862"></path><path d="M1291.628148 670.266752a41.76149 41.76149 0 0 1-83.52298 0c0-23.06694 41.76149-73.091215 41.76149-73.091215s41.76149 50.024275 41.76149 73.091215z" fill="#45BDFF" p-id="8863"></path><path d="M1234.735434 707.139428a47.872508 47.872508 0 0 0 47.855293-47.872508c0-10.810476-8.039001-26.802407-17.506774-41.916417 11.877753 16.542783 26.199913 39.282655 26.199912 52.79575a41.778704 41.778704 0 0 1-41.76149 41.795918 41.313923 41.313923 0 0 1-20.002824-5.319167 47.356084 47.356084 0 0 0 5.215883 0.516424z" fill="#3395C1" p-id="8864"></path></svg>